# xmcd
#
# Track frame offsets:
#	150
#	24280
#	69610
#	98103
#
# Disc length: 1898 seconds
#
# Revision: 2
# Processed by: cddbd v1.5.2PL0 Copyright (c) Steve Scherf et al.
# Submitted via: EZCDAudioConverter 8.0.2.1
#
DISCID=29076804
DTITLE=Various Artist - Liên Khúc Xuân Tuổi Trẻ
DYEAR=1992
DGENRE=Miscellaneous
TTITLE0=Part 1. LK Xuân Tuổi Trẻ
TTITLE1=Part 2. LK Xuân Tuổi Trẻ
TTITLE2=Part 3. LK Xuân Tuổi Trẻ
TTITLE3=Part 4. LK Xuân Tuổi Trẻ
EXTD=
EXTT0=
EXTT1=
EXTT2=
EXTT3=
PLAYORDER=
